<?xml version="1.0" standalone="no"?><!DOCTYPE svg PUBLIC "-//W3C//DTD SVG 1.1//EN" "http://www.w3.org/Graphics/SVG/1.1/DTD/svg11.dtd"><svg t="1715084988681" class="icon" viewBox="0 0 1024 1024" version="1.1" xmlns="http://www.w3.org/2000/svg" p-id="1972" xmlns:xlink="http://www.w3.org/1999/xlink" width="200" height="200"><path d="M516.170538 516.174692m-474.59393 0a474.59393 474.59393 0 1 0 949.18786 0 474.59393 474.59393 0 1 0-949.18786 0Z" fill="#70C4FF" p-id="1973"></path><path d="M516.170538 1007.384311c-270.856503 0-491.209619-220.35727-491.209619-491.209619C24.960919 245.318189 245.314035 24.965073 516.170538 24.965073c270.852349 0 491.209619 220.353116 491.209619 491.209619 0 270.852349-220.35727 491.209619-491.209619 491.209619z m0-949.18786c-252.529398 0-457.978241 205.448843-457.978241 457.978241s205.448843 457.978241 457.978241 457.97824 457.978241-205.448843 457.978241-457.97824S768.699936 58.196451 516.170538 58.196451z" fill="#6E6E96" p-id="1974"></path><path d="M509.889807 57.31582S462.39386 325.501351 565.764216 345.062171c103.362048 19.556666 148.062406-8.378461 201.137072 44.704512 53.070511 53.074665 172.337928 34.697713 175.997533-19.56082 0 0-72.635485-270.981121-433.009014-312.890043zM216.120269 872.070292s109.630317 16.686306 210.313086-25.32231c106.635339-44.484354 203.234802-151.128001 148.93473-277.984634-85.404642-199.479656-167.984618-93.932645-139.006856-250.531361 28.981916-156.598717-62.067907-219.007245-125.573071-219.007245-63.517626 0-340.654859 414.071282-94.667889 772.84555z" fill="#A3D9FF" opacity=".26" p-id="1975"></path><path d="M193.099232 863.484135s95.108205 15.764135 182.473498-23.951516c92.520311-42.062617 176.334001-142.903235 129.216061-262.831125-74.110128-188.621303-145.761133-88.815013-120.621596-236.881573 25.151999-148.058252-53.855603-207.081334-108.94492-207.081334-55.105933 0-295.551571 391.51133-82.123043 730.745548z" fill="#A3D9FF" opacity=".26" p-id="1976"></path><path d="M211.256026 152.523719c150.729224 23.129039 96.424998 151.884015 138.923777 302.430466 27.573736 97.667021 69.216807 83.398298 106.506568 155.834395 56.958582 75.318919-217.902302 326.851376-365.275157 116.716909C-54.669771 366.812108 211.256026 152.523719 211.256026 152.523719z" fill="#9EE3C3" p-id="1977"></path><path d="M236.669723 826.057295c-63.089772 0-118.025394-30.780564-158.862605-89.014401l-1.088327-1.549413-0.710321-1.752955C-1.748801 541.73793 36.143278 390.510235 81.624573 297.458221c49.27798-100.819848 116.372133-155.593467 119.205108-157.87397l5.703335-4.594238 7.244441 1.113251C331.150685 154.110517 338.141736 232.623802 346.233577 323.528238c3.43114 38.544245 7.323365 82.231046 19.934673 126.90648 14.692423 52.040338 32.791063 68.672643 53.747601 87.934381 15.975985 14.679961 34.062163 31.299804 50.931241 63.633935 14.156567 19.897288 13.37563 48.035957-2.259734 79.464534-34.593865 69.536659-133.095824 144.589727-231.917635 144.589727z m-130.574394-106.568876c34.672789 48.667354 78.59221 73.333344 130.574394 73.333344 90.958436 0 175.852146-73.266881 202.167244-126.15462 9.902951-19.90975 11.581135-36.625133 4.594238-45.859302l-0.864016-1.142329-0.65632-1.275254c-14.335186-27.852049-28.977762-41.306603-44.4802-55.554557-22.609799-20.777919-45.992228-42.266159-63.243467-103.370356-13.458708-47.666258-17.492167-92.998012-21.052078-132.991976-7.742911-86.966517-12.503306-140.423343-96.919315-156.258095-16.540919 14.937505-67.276925 64.605953-105.360085 143.110931-60.95881 125.664457-62.55807 262.307731-4.760395 406.162214z" fill="#6E6E96" p-id="1978"></path><path d="M556.538355 43.30464s-74.346901 253.430799 89.039324 253.430799c166.02812 0 197.15346 150.30137 300.984902 19.216044-110.731107-266.727504-390.024226-272.646844-390.024226-272.646843z" fill="#9EE3C3" p-id="1979"></path><path d="M866.283878 386.231695h-0.016615c-26.73049-0.004154-50.353846-13.263474-77.707425-28.616371-36.974062-20.748842-78.87883-44.264196-142.986313-44.264196-40.911981 0-72.336403-14.268723-93.405096-42.403239-56.634577-75.634617-13.437939-225.956757-11.572828-232.316412l3.576527-12.204223 12.71931 0.270005c2.978362 0.062309 73.943971 1.956497 159.518924 37.572227 79.223606 32.973835 186.124796 102.29449 245.496808 245.314035l3.746837 9.026473-6.06888 7.663986c-32.845064 41.460298-61.623437 59.957714-93.301249 59.957715z m-297.125907-325.409965c-3.443602 14.335186-8.677544 39.229642-11.277899 67.252002-5.138402 55.346861 2.093577 97.874717 20.910845 122.981024 14.655038 19.556666 36.500515 29.064994 66.782608 29.064994 72.78918 0 120.725444 26.900801 159.248919 48.517812 24.250598 13.608249 43.408488 24.3586 61.453127 24.362754h0.008307c11.963296 0 31.0298-4.315925 61.041888-39.777959-44.542509-101.280933-119.367111-174.535353-222.533925-217.798454-59.35955-24.890302-112.106055-32.383978-135.63387-34.602173z" fill="#6E6E96" p-id="1980"></path><path d="M759.116837 923.923704s-106.942729-170.992057 0-242.227671c106.955191-71.231459 231.651784-67.04846 231.651785-165.529649 0 270.287416-231.651784 407.75732-231.651785 407.75732z" fill="#9EE3C3" p-id="1981"></path><path d="M753.637814 946.500272l-8.606927-13.761945c-1.146483-1.83188-28.250826-45.535296-42.100003-99.050277-19.432048-75.06553-3.186058-132.406273 46.976707-165.820424 39.088409-26.032631 80.137469-42.24539 116.355518-56.547344 70.894992-27.997436 107.893978-44.949593 107.893977-95.149744h33.231379c0 144.668652-65.137655 251.690306-119.77835 315.997177-59.03139 69.470196-117.547693 104.587455-120.010969 106.045482l-13.961332 8.287075z m212.909287-347.978225c-23.806129 18.318797-55.500556 30.838719-88.079769 43.703417-34.681097 13.699636-73.98551 29.222843-110.141249 53.298977-75.509999 50.299845-25.052305 163.90962-3.505911 204.680367 20.304372-14.281185 59.480013-44.662972 98.215339-90.451658 54.507768-64.431489 89.15148-135.206017 103.51159-211.231103z" fill="#6E6E96" p-id="1982"></path><path d="M511.983384 37.385301C249.870888 37.385301 37.385301 249.870888 37.385301 511.983384c0 262.108343 212.481433 474.59393 474.593929 474.59393 262.108343 0 474.59393-212.485587 474.59393-474.59393C986.577314 249.870888 774.091727 37.385301 511.983384 37.385301z m342.823207 528.524303c-16.752769 58.499688-117.863391 40.421818-158.023512 83.917538-32.674753 35.395572-1.067558 135.488483-44.928823 156.661025-50.482618 24.346139-107.104732 37.991773-166.925368 37.991773-66.238445 0 80.764711-120.833446 26.352483-150.317986-19.361432-10.488654-29.297614 47.304867-38.411319-81.067947-3.348061-47.130402-71.173305-68.988341-115.582888-176.911397-11.157435-27.104343-31.993509-217.972918-40.164274-207.073026-50.283229 67.04846-8.382615 277.178773 39.109178 386.917092 30.020396 69.358041-173.243483 189.917327-173.243483 82.143813 0-213.449297-96.34192-87.730839-82.750286-238.401908 19.087273-211.592494 172.23408-384.682282 384.694743-384.682282 89.625027 0 180.77039 25.779242 245.849891 77.358495 30.768102 24.371062 55.71656 54.536846 71.925165 90.447504 28.450214 63.039925-198.956262 22.518413-178.282191 32.869987 42.158157 21.106079 257.202561 99.532132 234.451528 93.35525-296.739593-80.631786-11.336054 68.568795 10.737889 90.6552 36.824521 36.832829-5.150864 72.431943-14.808733 106.136869z" fill="#6E6E96" opacity=".2" p-id="1983"></path><path d="M674.71329 562.968627s-47.491794 39.109178-19.556666 67.052613 82.40551-26.531102 97.775023-41.900614c15.373666-15.37782 10.035876-64.780418-78.218357-25.151999z" fill="#9EE3C3" p-id="1984"></path><path d="M674.430823 654.483689h-0.008307c-11.975758-0.004154-22.701185-4.403158-31.017338-12.719311-9.524944-9.529098-14.231338-21.351161-13.60825-34.182626 1.428949-29.509464 30.98826-54.669771 34.357092-57.444591l1.723877-1.416488 2.031268-0.918017c24.40014-10.953893 45.277753-16.511841 62.055446-16.511841 29.899933 0 40.276431 17.263701 43.354486 24.682606 6.081342 14.675807 2.525585 32.720446-8.636004 43.882035-23.448891 23.461353-58.312761 54.628232-90.25227 54.628233z m9.271555-77.325264c-7.431367 6.667045-20.21714 21.185004-20.715611 32.06828-0.108002 2.421737 0.265851 5.391791 3.921303 9.047243 2.114346 2.1185 4.291002 2.978362 7.522753 2.982516 9.977721 0 29.659005-7.78445 66.745224-44.878976 1.316793-1.316793 2.500661-5.113478 1.441411-7.676449-1.275254-3.073902-7.369058-4.170538-12.652847-4.170538-8.046147 0-22.535028 2.222348-46.262233 12.627924z" fill="#6E6E96" p-id="1985"></path></svg>